<?xml version="1.0" encoding="utf-8"?>
<svg width="98px" height="97px" viewBox="0 0 98 97" version="1.1" xmlns:xlink="http://www.w3.org/1999/xlink" xmlns="http://www.w3.org/2000/svg">
  <defs>
    <filter id="filter_1">
      <feColorMatrix in="SourceGraphic" type="matrix" values="0 0 0 0 1 0 0 0 0 1 0 0 0 0 1 0 0 0 1 0" />
    </filter>
    <path d="M0 0L98 0L98 97L0 97L0 0Z" id="path_1" />
    <clipPath id="clip_1">
      <use xlink:href="#path_1" />
    </clipPath>
  </defs>
  <g id="Group" filter="url(#filter_1)">
    <g id="Rectangle">
      <g clip-path="url(#clip_1)">
        <use xlink:href="#path_1" fill="none" stroke="#FFFFFF" stroke-width="14" />
      </g>
    </g>
    <g stroke="#FB0909" stroke-width="2" id="KH" fill="#FFFFFF" transform="translate(12.105881 12.435913)">
      <path d="M63.3223 41.8991L62.9073 40.0924Q61.7598 40.4098 60.6246 40.6539Q59.4893 40.8981 58.3175 41.0934Q61.7598 30.5953 66.3497 21.1471Q67.253 19.2672 67.253 19.0475Q67.253 18.8278 67.0577 18.6813Q66.8624 18.5348 66.5206 18.5348Q65.2022 18.5348 62.5045 24.4674Q59.8067 30.4 56.0225 41.5817Q53.6299 41.9235 51.7501 42.131Q49.8702 42.3385 49.3087 42.3385Q49.1378 42.3385 48.7593 42.3629Q48.3809 42.3873 48.1612 42.3873Q50.8223 38.2858 52.7144 33.1954Q54.6065 28.1051 55.754 21.9528L53.6544 22.1969Q52.4337 28.4469 50.4317 33.5372Q48.4298 38.6276 45.7198 42.4362Q35.9053 42.8756 30.7051 44.8532Q25.505 46.8307 25.505 50.1022Q25.505 51.8356 27.0308 52.9342Q28.5567 54.0328 31.0714 54.0328Q35.4415 54.0328 39.6773 51.4816Q43.9132 48.9303 47.087 44.3405Q50.1876 44.1696 52.1651 43.9743Q54.1426 43.7789 55.3633 43.486Q54.5333 45.8053 53.7764 48.2955Q53.0196 50.7858 52.2628 53.5934L54.46 53.5934Q55.168 50.9567 55.9371 48.3322Q56.7061 45.7076 57.5606 43.0465Q59.9044 42.7047 61.1251 42.4484Q62.3458 42.192 63.3223 41.8991ZM8.73249 37.7975L1.43269 53.5934L3.72761 53.5934L10.0264 39.8971Q13.7862 45.4147 16.4595 48.5763Q19.1329 51.7379 21.8184 53.9352L24.626 53.9352Q20.5489 50.7125 17.0699 46.5255Q13.5909 42.3385 11.0762 37.651L12.4678 34.6969Q20.3048 29.7653 24.4918 26.0665Q28.6788 22.3678 30.4366 18.901L28.2149 18.901Q26.0421 22.1237 22.5753 25.1632Q19.1085 28.2028 14.0303 31.3034L19.7188 18.901L17.4239 18.901L10.9298 32.9879Q9.53815 33.9889 8.9278 34.6725Q8.31745 35.3561 8.31745 35.942Q8.31745 36.1862 8.42731 36.65Q8.53718 37.1139 8.73249 37.7975ZM31.9869 46.3912Q36.3204 44.9752 44.4258 44.4869Q41.6671 48.0514 38.066 50.151Q34.4649 52.2506 31.2667 52.2506Q29.7042 52.2506 28.6788 51.6036Q27.6534 50.9567 27.6534 50.0045Q27.6534 47.8073 31.9869 46.3912Z" />
    </g>
  </g>
</svg>